<svg class="md:tw-hidden" xmlns="http://www.w3.org/2000/svg" width="184" height="41" viewBox="0 0 184 41" fill="none">
				<g clip-path="url(#clip0_23745_14472)">
					<path d="M26.5533 32.6133H23.7257C23.4346 32.6133 23.2891 32.4458 23.2891 32.1631V31.9014C23.2891 31.6082 23.4346 31.4512 23.7257 31.4512H30.6907C30.9714 31.4512 31.1169 31.5978 31.1169 31.9014V32.1631C31.1169 32.4458 30.9714 32.6133 30.6907 32.6133H27.8735V40.5704C27.8735 40.8636 27.7072 41.0102 27.4369 41.0102H27.0003C26.7196 41.0102 26.5741 40.8636 26.5741 40.5704V32.6133H26.5533Z" fill="#1643E8"></path>
					<path d="M33.2969 31.8916C33.2969 31.5985 33.4424 31.4414 33.7335 31.4414H36.2908C37.2264 31.4414 37.6734 31.5147 38.0684 31.6927C38.9728 32.101 39.555 32.9805 39.555 34.195C39.555 35.4095 38.9105 36.4669 37.8709 36.8229V36.8543C37.8709 36.8543 37.9957 36.9904 38.1516 37.2836L39.8669 40.4664C40.0436 40.7805 39.9084 41.0004 39.5758 41.0004H39.0352C38.7857 41.0004 38.6194 40.9062 38.505 40.6863L36.6546 37.1998H34.6275V40.5607C34.6275 40.8538 34.482 41.0004 34.1909 41.0004H33.7647C33.4736 41.0004 33.3281 40.8538 33.3281 40.5607V31.8916H33.2969ZM36.5195 36.0377C37.5487 36.0377 38.2244 35.3257 38.2244 34.2578C38.2244 33.5668 37.9333 33.0224 37.3407 32.7711C37.1016 32.6559 36.8106 32.6036 36.2076 32.6036H34.6171V36.0272H36.5299V36.0377H36.5195Z" fill="#1643E8"></path>
					<path d="M44.6308 31.8079C44.7036 31.5566 44.8699 31.4414 45.1194 31.4414H45.7639C46.003 31.4414 46.1797 31.5566 46.2525 31.8079L49.3712 40.4874C49.4855 40.8015 49.3296 41.0109 49.0073 41.0109H48.5499C48.3004 41.0109 48.1341 40.8852 48.0613 40.6444L47.2193 38.2573H43.6432L42.8116 40.6444C42.7492 40.8852 42.5725 41.0109 42.3334 41.0109H41.876C41.5329 41.0109 41.4082 40.8119 41.5121 40.4874L44.6308 31.8079ZM46.8658 37.137L45.8159 34.1008C45.6496 33.6191 45.452 32.7397 45.452 32.7397H45.4312C45.4312 32.7397 45.2129 33.5982 45.057 34.1008L43.9967 37.137H46.8658Z" fill="#1643E8"></path>
					<path d="M50.2586 31.9532C50.1442 31.6391 50.2794 31.4297 50.6224 31.4297H51.1422C51.3917 31.4297 51.558 31.5449 51.6308 31.7961L53.8554 38.1932C54.0321 38.7167 54.2193 39.5124 54.2193 39.5124H54.2401C54.2401 39.5124 54.4376 38.7167 54.6039 38.1932L56.8597 31.7961C56.9325 31.5449 57.0988 31.4297 57.3483 31.4297H57.8369C58.1799 31.4297 58.3047 31.6391 58.2007 31.9532L55.0405 40.6327C54.9677 40.884 54.791 40.9991 54.5519 40.9991H53.9074C53.6579 40.9991 53.4916 40.884 53.3876 40.6327L50.2586 31.9532Z" fill="#1643E8"></path>
					<path d="M60.5156 31.8916C60.5156 31.5985 60.6612 31.4414 60.9522 31.4414H65.5782C65.8693 31.4414 66.0149 31.588 66.0149 31.8916V32.1534C66.0149 32.436 65.8693 32.6036 65.5782 32.6036H61.8255V35.5979H64.7986C65.0793 35.5979 65.2352 35.7445 65.2352 36.0377V36.3099C65.2352 36.603 65.0689 36.7496 64.7986 36.7496H61.8255V39.8173H65.8069C66.098 39.8173 66.2436 39.9639 66.2436 40.257V40.5293C66.2436 40.8224 66.098 40.969 65.8069 40.969H60.9522C60.6612 40.969 60.5156 40.8224 60.5156 40.5293V31.8916Z" fill="#1643E8"></path>
					<path d="M68.8411 31.8916C68.8411 31.5985 68.9866 31.4414 69.2777 31.4414H69.7039C69.995 31.4414 70.1405 31.588 70.1405 31.8916V39.8487H73.9557C74.2364 39.8487 74.4027 39.9953 74.4027 40.2884V40.5607C74.4027 40.8538 74.2364 41.0004 73.9557 41.0004H69.2569C68.9659 41.0004 68.8203 40.8538 68.8203 40.5607V31.8916H68.8411Z" fill="#1643E8"></path>
					<path d="M80.7969 31.8916C80.7969 31.5985 80.9424 31.4414 81.2335 31.4414H81.6597C81.9508 31.4414 82.0963 31.588 82.0963 31.8916V40.5607C82.0963 40.8538 81.9508 41.0004 81.6597 41.0004H81.2335C80.9424 41.0004 80.7969 40.8538 80.7969 40.5607V31.8916Z" fill="#1643E8"></path>
					<path d="M85.401 31.8904C85.401 31.5972 85.5466 31.4402 85.8376 31.4402H86.3574C86.6069 31.4402 86.7628 31.5134 86.898 31.7333L90.9418 37.6488C91.2848 38.1723 91.7214 39.0308 91.7214 39.0308H91.7422C91.7422 39.0308 91.6694 38.1827 91.6694 37.6488V31.8799C91.6694 31.5867 91.8358 31.4297 92.106 31.4297H92.5323C92.8233 31.4297 92.9793 31.5763 92.9793 31.8799V40.5489C92.9793 40.8421 92.8337 40.9887 92.5323 40.9887H92.0125C91.7734 40.9887 91.6071 40.9154 91.4823 40.6955L87.4281 34.7905C87.0851 34.2565 86.6485 33.398 86.6485 33.398H86.6173C86.6173 33.398 86.69 34.2461 86.69 34.7905V40.5489C86.69 40.8421 86.5445 40.9887 86.2534 40.9887H85.8272C85.5362 40.9887 85.3906 40.8421 85.3906 40.5489L85.401 31.8904Z" fill="#1643E8"></path>
					<path d="M95.8108 39.5446L96.0395 39.2096C96.2059 39.0002 96.393 38.9688 96.6425 39.1363C96.9855 39.3771 97.7028 39.9111 98.7112 39.9111C99.7196 39.9111 100.374 39.3666 100.374 38.5395C100.374 36.4246 95.8004 36.9062 95.8004 33.9223C95.8004 32.31 97.1519 31.2734 98.8775 31.2734C100.011 31.2734 100.894 31.7132 101.258 32.0063C101.487 32.1738 101.508 32.3728 101.393 32.6136L101.206 32.9591C101.04 33.2418 100.832 33.2104 100.603 33.0847C100.239 32.8649 99.6572 32.5298 98.8567 32.5298C97.8692 32.5298 97.1415 33.0533 97.1415 33.87C97.1415 35.9221 101.715 35.3672 101.715 38.4453C101.715 39.9425 100.593 41.1675 98.7008 41.1675C97.3286 41.1675 96.2786 40.5288 95.8524 40.1833C95.6861 40.0053 95.6029 39.8273 95.8108 39.5446Z" fill="#1643E8"></path>
					<path d="M104.26 31.8916C104.26 31.5985 104.427 31.4414 104.697 31.4414H105.144C105.425 31.4414 105.57 31.588 105.57 31.8916V37.5977C105.57 39.053 106.527 39.9325 107.972 39.9325C109.417 39.9325 110.383 39.0739 110.383 37.5872V31.8916C110.383 31.5985 110.55 31.4414 110.82 31.4414H111.257C111.537 31.4414 111.693 31.588 111.693 31.8916V37.6291C111.693 39.765 110.186 41.1784 107.961 41.1784C105.736 41.1784 104.219 39.7545 104.219 37.6291V31.8916H104.26Z" fill="#1643E8"></path>
					<path d="M114.883 31.8916C114.883 31.5985 115.028 31.4414 115.319 31.4414H117.877C118.812 31.4414 119.259 31.5147 119.654 31.6927C120.559 32.101 121.141 32.9805 121.141 34.195C121.141 35.4095 120.496 36.4669 119.457 36.8229V36.8543C119.457 36.8543 119.582 36.9904 119.738 37.2836L121.453 40.4664C121.63 40.7805 121.494 41.0004 121.162 41.0004H120.621C120.372 41.0004 120.205 40.9062 120.091 40.6863L118.241 37.1998H116.213V40.5607C116.213 40.8538 116.068 41.0004 115.777 41.0004H115.351C115.06 41.0004 114.914 40.8538 114.914 40.5607V31.8916H114.883ZM118.126 36.0377C119.155 36.0377 119.81 35.3257 119.81 34.2578C119.81 33.5668 119.519 33.0224 118.927 32.7711C118.688 32.6559 118.396 32.6036 117.794 32.6036H116.203V36.0272H118.126V36.0377Z" fill="#1643E8"></path>
					<path d="M126.217 31.8079C126.289 31.5566 126.456 31.4414 126.705 31.4414H127.35C127.589 31.4414 127.766 31.5566 127.838 31.8079L130.957 40.4874C131.071 40.8015 130.916 41.0109 130.593 41.0109H130.136C129.886 41.0109 129.72 40.8852 129.647 40.6444L128.805 38.2573H125.229L124.398 40.6444C124.335 40.8852 124.158 41.0109 123.919 41.0109H123.462C123.119 41.0109 122.994 40.8119 123.098 40.4874L126.217 31.8079ZM128.462 37.137L127.412 34.1008C127.246 33.6191 127.048 32.7397 127.048 32.7397H127.028C127.028 32.7397 126.809 33.5982 126.653 34.1008L125.593 37.137H128.462Z" fill="#1643E8"></path>
					<path d="M133.297 31.8904C133.297 31.5972 133.442 31.4402 133.733 31.4402H134.253C134.503 31.4402 134.659 31.5134 134.794 31.7333L138.838 37.6488C139.181 38.1723 139.617 39.0308 139.617 39.0308H139.638C139.638 39.0308 139.565 38.1827 139.565 37.6488V31.8799C139.565 31.5867 139.732 31.4297 140.002 31.4297H140.428C140.719 31.4297 140.875 31.5763 140.875 31.8799V40.5489C140.875 40.8421 140.73 40.9887 140.428 40.9887H139.909C139.669 40.9887 139.503 40.9154 139.378 40.6955L135.324 34.7905C134.981 34.2565 134.544 33.398 134.544 33.398H134.524C134.524 33.398 134.596 34.2461 134.596 34.7905V40.5489C134.596 40.8421 134.451 40.9887 134.16 40.9887H133.733C133.442 40.9887 133.297 40.8421 133.297 40.5489V31.8904Z" fill="#1643E8"></path>
					<path d="M148.412 31.2734C150.034 31.2734 151.084 31.9121 151.562 32.2681C151.78 32.4356 151.791 32.645 151.635 32.8858L151.458 33.158C151.292 33.3988 151.094 33.4302 150.845 33.2732C150.439 33.001 149.608 32.5089 148.464 32.5089C146.26 32.5089 144.95 34.1317 144.95 36.1524C144.95 38.1835 146.281 39.932 148.474 39.932C149.722 39.932 150.637 39.3248 151.053 38.9897C151.281 38.8117 151.489 38.8117 151.666 39.0421L151.863 39.3143C152.03 39.5342 152.009 39.7436 151.801 39.932C151.323 40.3403 150.169 41.1465 148.422 41.1465C145.491 41.1465 143.578 38.9478 143.578 36.1524C143.589 33.3988 145.574 31.2734 148.412 31.2734Z" fill="#1643E8"></path>
					<path d="M154.562 31.8916C154.562 31.5985 154.708 31.4414 154.999 31.4414H159.625C159.916 31.4414 160.062 31.588 160.062 31.8916V32.1534C160.062 32.436 159.916 32.6036 159.625 32.6036H155.872V35.5979H158.845C159.126 35.5979 159.282 35.7445 159.282 36.0377V36.3099C159.282 36.603 159.116 36.7496 158.845 36.7496H155.872V39.8173H159.854C160.145 39.8173 160.29 39.9639 160.29 40.257V40.5293C160.29 40.8224 160.145 40.969 159.854 40.969H154.999C154.708 40.969 154.562 40.8224 154.562 40.5293V31.8916Z" fill="#1643E8"></path>
					<path d="M171.751 11.3389C171.845 9.50664 172.739 8.28166 174.631 8.28166C177.354 8.28166 177.385 10.5641 177.385 11.3389H171.751ZM183.145 14.082C183.145 13.2758 183.654 5.31869 174.288 5.31869C169.007 5.31869 164.848 8.70046 164.848 13.5689C164.848 17.7255 168.019 21.882 174.797 21.882C177.968 21.882 180.338 21.013 182.157 20.1754L180.785 17.2439C179.121 17.9558 177.552 18.4374 176.148 18.4374C172.853 18.4374 171.543 16.2492 171.637 14.0924L183.145 14.082ZM151.729 5.64326V21.5575H158.122V16.7937C158.122 14.6055 158.216 13.7051 158.538 12.8256C159.276 10.763 161.096 10.3128 162.343 10.3128C163.081 10.3128 163.746 10.4385 164.193 10.5432L164.9 5.64326C163.944 5.4548 163.206 5.4548 162.977 5.4548C159.651 5.4548 158.237 8.35495 157.634 9.7998L157.187 5.64326H151.729ZM136.853 13.4328C136.853 10.5013 137.363 8.37589 139.858 8.37589C141.812 8.37589 142.831 9.44382 142.831 13.2444C142.831 17.1706 142.093 18.8144 139.858 18.8144C137.591 18.8144 136.853 17.2334 136.853 13.4642V13.4328ZM130.065 13.7888C130.065 17.9454 133.173 21.8716 139.66 21.8716C145.897 21.8716 149.609 18.427 149.609 13.4642C149.609 9.01456 146.698 5.30822 139.951 5.30822C133.069 5.30822 130.065 9.46476 130.065 13.7469V13.7888ZM101.654 0.293156V21.5575H106.197V5.05695L112.185 21.5575H115.282L121.239 5.05695V21.5575H127.768V0.293156H119.295L114.721 12.9512L110.147 0.293156H101.654ZM99.2214 12.1974C99.2214 10.0511 97.4853 8.35495 95.4062 8.35495C93.3063 8.35495 91.6223 10.0825 91.6223 12.1974C91.6223 14.2914 93.3063 16.0084 95.4062 16.0084C97.4646 16.0084 99.2214 14.3123 99.2214 12.2183V12.1974ZM77.7442 5.64326V21.5575H84.1375V16.7937C84.1375 14.6055 84.231 13.7051 84.5533 12.8256C85.2914 10.763 87.1106 10.3128 88.3581 10.3128C89.0961 10.3128 89.7615 10.4385 90.2085 10.5432L90.9154 5.64326C89.959 5.4548 89.2209 5.4548 88.9922 5.4548C85.6656 5.4548 84.2518 8.35495 83.6489 9.7998L83.2019 5.64326H77.7442ZM64.4795 11.3389C64.5731 9.50664 65.4671 8.28166 67.3591 8.28166C70.0827 8.28166 70.1139 10.5641 70.1139 11.3389H64.4795ZM75.8626 14.082C75.8626 13.2758 76.372 5.31869 66.9952 5.31869C61.7143 5.31869 57.5561 8.70046 57.5561 13.5689C57.5561 17.7255 60.7267 21.882 67.5046 21.882C70.6753 21.882 73.035 21.013 74.8647 20.1754L73.4925 17.2439C71.8292 17.9558 70.2594 18.4374 68.856 18.4374C65.5607 18.4374 64.2508 16.2492 64.3444 14.0924L75.8626 14.082ZM39.655 5.64326C40.7049 7.02528 41.7341 9.11925 42.4722 11.5378C43.2103 13.9563 43.6885 16.7204 43.6885 19.4007C43.6885 20.3011 43.6261 21.0444 43.5949 21.5575H47.3685C50.3728 19.0447 56.0695 12.9512 57.5457 5.64326H53.6786C53.4187 6.96246 52.3999 11.1818 48.907 15.6001C48.907 15.3384 48.9694 14.4694 48.9694 13.8935C48.9694 10.9934 48.2001 8.12462 46.7032 5.64326H39.655ZM27.014 13.4328C27.014 10.5013 27.5234 8.37589 30.0183 8.37589C31.9727 8.37589 32.9915 9.44382 32.9915 13.2444C32.9915 17.1706 32.2534 18.8144 30.0183 18.8144C27.7417 18.8144 27.014 17.2334 27.014 13.4642V13.4328ZM20.2361 13.7888C20.2361 17.9454 23.3444 21.8716 29.8312 21.8716C36.0685 21.8716 39.7797 18.427 39.7797 13.4642C39.7797 9.01456 36.869 5.30822 30.1223 5.30822C23.2405 5.30822 20.2361 9.46476 20.2361 13.7469V13.7888ZM19.9659 1.02605C17.4086 0.157048 15.1007 0 13.2815 0C5.18341 0 0.609375 4.7952 0.609375 10.9829C0.609375 16.689 4.61165 21.8716 12.6994 21.8716C16.6081 21.8716 18.9679 20.9397 20.0906 20.5209L18.7184 16.9402C17.7932 17.3276 16.0363 18.1024 14.082 18.1024C10.9841 18.1024 7.84467 16.2283 7.84467 10.784C7.84467 6.17722 10.4643 3.75868 14.3731 3.75868C16.1923 3.75868 17.9179 4.33453 18.656 4.59627L19.9659 1.02605Z" fill="#1643E8"></path>
				</g>
				<defs>
					<clipPath id="clip0_23745_14472">
						<rect width="182.535" height="41" fill="white" transform="translate(0.734375)"></rect>
					</clipPath>
				</defs>
			</svg>